<?xml version="1.0" encoding="utf-8"?>
<!-- Generator: Adobe Illustrator 27.2.0, SVG Export Plug-In . SVG Version: 6.00 Build 0)  -->
<svg version="1.1" id="icon" xmlns="http://www.w3.org/2000/svg" xmlns:xlink="http://www.w3.org/1999/xlink" x="0px" y="0px"
	 viewBox="0 0 400 400" style="enable-background:new 0 0 400 400;" xml:space="preserve">
<style type="text/css">
	.st0{fill:#CC6633;}
	.st1{fill:#FFFFFF;}
</style>
<g>
	<path class="st0" d="M199.5,359c-13.7-15.1-118-132.4-118-201c0-65.1,52.9-118,118-118s118,52.9,118,118
		C317.5,226.7,213.2,344,199.5,359z"/>
	<path class="st1" d="M199.5,42c31,0,60.1,12.1,82,34c21.9,21.9,34,51,34,82c0,37.5-32.2,90.1-59.2,127.6
		c-24.1,33.5-48.6,61.3-56.8,70.4c-8.3-9.2-32.7-36.9-56.8-70.4c-27-37.5-59.2-90.1-59.2-127.6c0-31,12.1-60.1,34-82
		S168.5,42,199.5,42 M199.5,38c-66.3,0-120,53.7-120,120c0,74.8,120,204,120,204s120-129.2,120-204C319.5,91.7,265.8,38,199.5,38
		C199.5,38,199.5,38,199.5,38z"/>
</g>
<path class="st1" d="M247.9,94.8H151c-7.5,0-13.6,6.1-13.6,13.6v80.2c0,7.5,6.1,13.6,13.6,13.6h7.6v36.5h18.8v-36.5h45.8v36.5H242
	v-36.5h6c7.5,0,13.5-6.1,13.5-13.6v-80.2C261.5,100.9,255.4,94.8,247.9,94.8L247.9,94.8z M254.2,108.3v19.8H223v-26.1h25
	C251.4,102.1,254.2,104.9,254.2,108.3z M182.9,160.4v-26.1h33.9v26.1H182.9z M216.7,166.7v28.1h-33.9v-28.1H216.7z M176.6,160.4
	h-31.8v-26.1h31.8V160.4z M182.9,128.1v-26.1h33.9v26.1H182.9z M223,134.4h31.2v26.1H223V134.4z M151,102.1h25.6v26.1h-31.8v-19.8
	C144.8,104.9,147.6,102.1,151,102.1z M151,194.8c-3.4,0-6.2-2.8-6.2-6.2v-21.9h31.8v28.1H151z M248,194.8h-25v-28.1h31.2v21.9
	C254.2,192,251.4,194.8,248,194.8z"/>
</svg>
