<?xml version="1.0" encoding="utf-8"?>
<!-- Generator: Adobe Illustrator 27.2.0, SVG Export Plug-In . SVG Version: 6.00 Build 0)  -->
<svg version="1.1" id="icon" xmlns="http://www.w3.org/2000/svg" xmlns:xlink="http://www.w3.org/1999/xlink" x="0px" y="0px"
	 viewBox="0 0 400 400" style="enable-background:new 0 0 400 400;" xml:space="preserve">
<style type="text/css">
	.st0{fill:#59B55B;}
	.st1{fill:#FFFFFF;}
	.st2{fill:none;}
</style>
<g>
	<path class="st0" d="M320,158c0,74.8-120,204-120,204S80,232.8,80,158c0-66.3,53.7-120,120-120S320,91.7,320,158z"/>
	<path class="st1" d="M200,42c31,0,60.1,12.1,82,34s34,51,34,82c0,37.5-32.2,90.1-59.2,127.6c-24.1,33.5-48.6,61.3-56.8,70.4
		c-8.3-9.2-32.7-36.9-56.8-70.4C116.2,248.1,84,195.5,84,158c0-31,12.1-60.1,34-82S169,42,200,42 M200,38C133.7,38,80,91.7,80,158
		c0,74.8,120,204,120,204s120-129.2,120-204C320,91.7,266.3,38,200,38C200,38,200,38,200,38z"/>
</g>
<path class="st1" d="M270,139.4c-0.1-5-2-9.5-5.1-12.7c-0.3-0.4-0.6-0.7-1-1l-17.1-14.9c-1.4-1.2-3.2-1.9-5.1-1.9H231l4.2-15.5
	l1.3-4.9l-22.7-6.1l-10.5-2.8l-7.7,28.6l-0.2,0.7h-17.2c-1.9,0-3.7,0.7-5.1,1.9l-17.1,14.9c-0.4,0.3-0.7,0.6-1,1
	c-3.1,3.3-5,8-5.1,13.1l0,0v5.8l0,0v65.7c0,6.8,5.5,12.4,12.4,12.4h95.3c6.8,0,12.4-5.5,12.4-12.4V139.4L270,139.4L270,139.4z
	 M163.9,127.1L163.9,127.1L163.9,127.1l6.4-5.6l1.1-1l5.8-5.1c0.1-0.1,0.2-0.2,0.3-0.2c0.2-0.1,0.4-0.2,0.7-0.2h15.5l-2.4,8.8H227
	l2.4-8.8h12.4c0.2,0,0.4,0,0.5,0.1c0.2,0.1,0.3,0.2,0.5,0.3l7,6.1l3.2,2.8l3.2,2.8l3.6,3.2c-0.7-0.1-1.4-0.2-2.1-0.2h-95.3
	c-0.7,0-1.4,0.1-2.1,0.2L163.9,127.1L163.9,127.1z M263,147.1L263,147.1v8.1l0,0v56.1c0,2.9-2.4,5.3-5.3,5.3h-95.3
	c-2.7,0-5-2.1-5.3-4.8c0-0.2,0-0.4,0-0.5v-64.2l0,0v-4.6c0-1.4,0.6-2.7,1.5-3.7c1-1,2.3-1.6,3.8-1.6h95.3c1.5,0,2.8,0.6,3.8,1.6
	c0.9,0.9,1.5,2.2,1.5,3.7L263,147.1L263,147.1z"/>
<g>
	<g>
		<circle class="st0" cx="168.5" cy="203" r="41.7"/>
		<path class="st1" d="M168.5,168.5c19,0,34.5,15.5,34.5,34.5s-15.5,34.5-34.5,34.5S134,222,134,203S149.5,168.5,168.5,168.5
			 M168.5,161.3c-23,0-41.7,18.7-41.7,41.7s18.7,41.7,41.7,41.7s41.7-18.7,41.7-41.7S191.5,161.3,168.5,161.3L168.5,161.3z"/>
	</g>
	<path class="st1" d="M167.2,206.1c-1.7,0-3.1-1.4-3.1-3.1v-20.3c0-1.7,1.4-3.1,3.1-3.1s3.1,1.4,3.1,3.1V203
		C170.3,204.7,168.9,206.1,167.2,206.1z"/>
	<g>
		<line class="st2" x1="167.3" y1="203" x2="182.5" y2="203"/>
		<path class="st1" d="M182.5,206.1h-15.2c-1.7,0-3.1-1.4-3.1-3.1s1.4-3.1,3.1-3.1h15.2c1.7,0,3.1,1.4,3.1,3.1
			S184.2,206.1,182.5,206.1z"/>
	</g>
</g>
</svg>
