<?xml version="1.0" encoding="utf-8"?>
<!-- Generator: Adobe Illustrator 27.2.0, SVG Export Plug-In . SVG Version: 6.00 Build 0)  -->
<svg version="1.1" id="icon" xmlns="http://www.w3.org/2000/svg" xmlns:xlink="http://www.w3.org/1999/xlink" x="0px" y="0px"
	 viewBox="0 0 400 400" style="enable-background:new 0 0 400 400;" xml:space="preserve">
<style type="text/css">
	.st0{fill:#59B55B;}
	.st1{fill:#FFFFFF;}
</style>
<g>
	<path class="st0" d="M320,158c0,74.8-120,204-120,204S80,232.8,80,158c0-66.3,53.7-120,120-120S320,91.7,320,158z"/>
	<path class="st1" d="M200,42c31,0,60.1,12.1,82,34s34,51,34,82c0,37.5-32.2,90.1-59.2,127.6c-24.1,33.5-48.6,61.3-56.8,70.4
		c-8.3-9.2-32.7-36.9-56.8-70.4C116.2,248.1,84,195.5,84,158c0-31,12.1-60.1,34-82S169,42,200,42 M200,38C133.7,38,80,91.7,80,158
		c0,74.8,120,204,120,204s120-129.2,120-204C320,91.7,266.3,38,200,38C200,38,200,38,200,38z"/>
</g>
<path class="st1" d="M262,136.6c-0.1-5.1-2.1-9.8-5.3-13.2c-0.3-0.4-0.6-0.7-1-1L238.1,107c-1.4-1.3-3.3-2-5.2-2h-11.1l4.3-16
	l1.4-5.1l-23.5-6.3L193,74.8l-7.9,29.5l-0.2,0.7h-17.8c-1.9,0-3.8,0.7-5.2,2l-17.7,15.4c-0.4,0.3-0.7,0.7-1,1
	c-3.2,3.5-5.2,8.2-5.3,13.5l0,0v6l0,0v67.9c0,7,5.7,12.8,12.8,12.8h98.5c7,0,12.8-5.7,12.8-12.8L262,136.6L262,136.6L262,136.6z
	 M152.3,123.9L152.3,123.9L152.3,123.9l6.6-5.7l1.2-1l6-5.2c0.1-0.1,0.2-0.2,0.4-0.2c0.2-0.1,0.4-0.2,0.7-0.2h16.1l-2.4,9.1h36.8
	l2.4-9.1h12.8c0.2,0,0.4,0,0.6,0.1s0.3,0.2,0.5,0.3l7.2,6.3l3.3,2.9l3.3,2.9l3.8,3.3c-0.7-0.1-1.4-0.2-2.2-0.2h-98.5
	c-0.8,0-1.5,0.1-2.2,0.2L152.3,123.9L152.3,123.9z M254.7,144.5L254.7,144.5v8.4l0,0v58c0,3-2.4,5.5-5.5,5.5h-98.5
	c-2.8,0-5.2-2.1-5.4-4.9c0-0.2,0-0.4,0-0.6v-66.3l0,0v-4.8c0-1.5,0.6-2.8,1.5-3.8c1-1,2.4-1.7,3.9-1.7h98.5c1.6,0,2.9,0.6,3.9,1.7
	c0.9,1,1.5,2.3,1.5,3.8L254.7,144.5L254.7,144.5z"/>
</svg>
