<?xml version="1.0" encoding="utf-8"?>
<!-- Generator: Adobe Illustrator 27.2.0, SVG Export Plug-In . SVG Version: 6.00 Build 0)  -->
<svg version="1.1" id="icon" xmlns="http://www.w3.org/2000/svg" xmlns:xlink="http://www.w3.org/1999/xlink" x="0px" y="0px"
	 viewBox="0 0 400 400" style="enable-background:new 0 0 400 400;" xml:space="preserve">
<style type="text/css">
	.st0{fill:#3EBCDF;}
	.st1{fill:#FFFFFF;}
</style>
<g>
	<path class="st0" d="M320,158c0,74.8-120,204-120,204S80,232.8,80,158c0-66.3,53.7-120,120-120S320,91.7,320,158z"/>
	<path class="st1" d="M200,42c31,0,60.1,12.1,82,34s34,51,34,82c0,37.5-32.2,90.1-59.2,127.6c-24.1,33.5-48.6,61.3-56.8,70.4
		c-8.3-9.2-32.7-36.9-56.8-70.4C116.2,248.1,84,195.5,84,158c0-31,12.1-60.1,34-82S169,42,200,42 M200,38C133.7,38,80,91.7,80,158
		c0,74.8,120,204,120,204s120-129.2,120-204C320,91.7,266.3,38,200,38C200,38,200,38,200,38z"/>
</g>
<g>
	<g>
		<path class="st0" d="M125.3,127.6l7.9,29.6c7-1.9,14.2,2.3,16.1,9.3c1.9,7-2.3,14.2-9.3,16.1l7.9,29.6l126.7-33.9L252,93.6
			L125.3,127.6L125.3,127.6z"/>
		<path class="st1" d="M144.9,217.4l-10.2-38l4.2-1.1c2.3-0.6,4.1-2.1,5.3-4.1c1.2-2,1.5-4.4,0.9-6.6s-2.1-4.1-4.1-5.3
			c-2-1.2-4.4-1.5-6.6-0.9l-4.2,1.1l-10.2-38l135.1-36.2l24.9,92.9L144.9,217.4L144.9,217.4z M145.2,185.1l5.8,21.7l118.3-31.7
			L249,99l-118.3,31.7l5.8,21.7c3.1,0,6.2,0.8,8.9,2.4c4,2.3,6.9,6.1,8.1,10.6s0.6,9.2-1.8,13.3
			C150.2,181.3,147.9,183.6,145.2,185.1L145.2,185.1z"/>
	</g>
	<path class="st1" d="M196.1,164.4h-9.9v-4.8h9.9v-3.4h-9.9v-4.8h7.7l-9.3-18.7H195l3.1,8.3c1,2.8,2,5.7,3.1,8.5h0.3
		c1-2.8,2.1-5.7,3.2-8.5l3-8.3h10.1l-9.4,18.7h7.8v4.8h-9.9v3.4h9.9v4.8h-9.9v9.4h-10L196.1,164.4L196.1,164.4z"/>
</g>
</svg>
